# MagicaVoxel @ Ephtracy

# group
o 

# material
mtllib 2.mtl
usemtl palette

# normals
vn -1 0 0
vn 1 0 0
vn 0 0 1
vn 0 0 -1
vn 0 -1 0
vn 0 1 0

# texcoords
vt 0.0644531 0.5
vt 0.658203 0.5
vt 0.845703 0.5
vt 0.904297 0.5

# verts
v 0 0.1 0
v 0 0.1 -0.3
v 0 0.3 0
v 0 0.3 -0.3
v 0.1 0.3 0
v 0.1 0.3 -0.1
v 0.1 0.3 -0.2
v 0.1 0.3 -0.3
v 0.1 0.4 0
v 0.1 0.4 -0.1
v 0.1 0.4 -0.2
v 0.1 0.4 -0.3
v 0.2 0.3 0
v 0.2 0.3 -0.1
v 0.2 0.3 -0.2
v 0.2 0.3 -0.3
v 0.2 0.4 0
v 0.2 0.4 -0.1
v 0.2 0.4 -0.2
v 0.2 0.4 -0.3
v 0.3 0.1 0
v 0.3 0.1 -0.3
v 0.3 0.3 0
v 0.3 0.3 -0.3
v 0 0.1 0
v 0 0.3 0
v 0.1 0.3 0
v 0.1 0.4 0
v 0.2 0.3 0
v 0.2 0.4 0
v 0.3 0.1 0
v 0.3 0.3 0
v 0 0.1 -0.3
v 0 0.3 -0.3
v 0.1 0.3 -0.3
v 0.1 0.4 -0.3
v 0.2 0.3 -0.3
v 0.2 0.4 -0.3
v 0.3 0.1 -0.3
v 0.3 0.3 -0.3
v 0 0.1 0
v 0.3 0.1 0
v 0 0.1 -0.3
v 0.3 0.1 -0.3
v 0 0.3 0
v 0.1 0.3 0
v 0.2 0.3 0
v 0.3 0.3 0
v 0.1 0.3 -0.1
v 0.2 0.3 -0.1
v 0.1 0.3 -0.2
v 0.2 0.3 -0.2
v 0 0.3 -0.3
v 0.1 0.3 -0.3
v 0.2 0.3 -0.3
v 0.3 0.3 -0.3
v 0.1 0.4 0
v 0.2 0.4 0
v 0.1 0.4 -0.1
v 0.2 0.4 -0.1
v 0.1 0.4 -0.2
v 0.2 0.4 -0.2
v 0.1 0.4 -0.3
v 0.2 0.4 -0.3

# faces
f 3/4/1 2/4/1 1/4/1
f 4/4/1 2/4/1 3/4/1
f 9/2/1 6/2/1 5/2/1
f 10/1/1 7/1/1 6/1/1
f 10/2/1 6/2/1 9/2/1
f 11/3/1 8/3/1 7/3/1
f 11/1/1 7/1/1 10/1/1
f 12/3/1 8/3/1 11/3/1
f 13/2/2 14/2/2 17/2/2
f 14/1/2 15/1/2 18/1/2
f 17/2/2 14/2/2 18/2/2
f 15/3/2 16/3/2 19/3/2
f 18/1/2 15/1/2 19/1/2
f 19/3/2 16/3/2 20/3/2
f 21/4/2 22/4/2 23/4/2
f 23/4/2 22/4/2 24/4/2
f 27/4/3 26/4/3 25/4/3
f 29/4/3 27/4/3 25/4/3
f 29/2/3 28/2/3 27/2/3
f 30/2/3 28/2/3 29/2/3
f 31/4/3 29/4/3 25/4/3
f 32/4/3 29/4/3 31/4/3
f 33/4/4 34/4/4 35/4/4
f 33/4/4 35/4/4 37/4/4
f 35/3/4 36/3/4 37/3/4
f 37/3/4 36/3/4 38/3/4
f 33/4/4 37/4/4 39/4/4
f 39/4/4 37/4/4 40/4/4
f 43/4/5 42/4/5 41/4/5
f 44/4/5 42/4/5 43/4/5
f 45/4/6 46/4/6 49/4/6
f 47/4/6 48/4/6 50/4/6
f 45/4/6 49/4/6 51/4/6
f 50/4/6 48/4/6 52/4/6
f 45/4/6 51/4/6 53/4/6
f 53/4/6 51/4/6 54/4/6
f 52/4/6 48/4/6 55/4/6
f 55/4/6 48/4/6 56/4/6
f 57/2/6 58/2/6 59/2/6
f 59/2/6 58/2/6 60/2/6
f 59/1/6 60/1/6 61/1/6
f 61/1/6 60/1/6 62/1/6
f 61/3/6 62/3/6 63/3/6
f 63/3/6 62/3/6 64/3/6
