# MagicaVoxel @ Ephtracy

# group
o 

# material
mtllib 4.mtl
usemtl palette

# normals
vn -1 0 0
vn 1 0 0
vn 0 0 1
vn 0 0 -1
vn 0 -1 0
vn 0 1 0

# texcoords
vt 0.716797 0.5
vt 0.904297 0.5
vt 0.966797 0.5
vt 0.990234 0.5

# verts
v 0 0.1 0
v 0 0.1 -0.3
v 0 0.2 0
v 0 0.2 -0.2
v 0 0.2 -0.3
v 0 0.4 -0.2
v 0 0.4 -0.3
v 0.1 0.2 -0.1
v 0.1 0.2 -0.2
v 0.1 0.4 -0.1
v 0.1 0.4 -0.2
v 0.2 0.2 -0.1
v 0.2 0.2 -0.2
v 0.2 0.4 -0.1
v 0.2 0.4 -0.2
v 0.3 0.1 0
v 0.3 0.1 -0.3
v 0.3 0.2 0
v 0.3 0.2 -0.2
v 0.3 0.2 -0.3
v 0.3 0.4 -0.2
v 0.3 0.4 -0.3
v 0 0.1 0
v 0 0.2 0
v 0.1 0.1 0
v 0.1 0.2 0
v 0.2 0.1 0
v 0.2 0.2 0
v 0.3 0.1 0
v 0.3 0.2 0
v 0.1 0.2 -0.1
v 0.1 0.4 -0.1
v 0.2 0.2 -0.1
v 0.2 0.4 -0.1
v 0 0.2 -0.2
v 0 0.4 -0.2
v 0.1 0.2 -0.2
v 0.1 0.4 -0.2
v 0.2 0.2 -0.2
v 0.2 0.4 -0.2
v 0.3 0.2 -0.2
v 0.3 0.4 -0.2
v 0 0.1 -0.3
v 0 0.2 -0.3
v 0 0.4 -0.3
v 0.3 0.1 -0.3
v 0.3 0.2 -0.3
v 0.3 0.4 -0.3
v 0 0.1 0
v 0.1 0.1 0
v 0.2 0.1 0
v 0.3 0.1 0
v 0.1 0.1 -0.1
v 0.2 0.1 -0.1
v 0 0.1 -0.3
v 0.3 0.1 -0.3
v 0 0.2 0
v 0.1 0.2 0
v 0.2 0.2 0
v 0.3 0.2 0
v 0.1 0.2 -0.1
v 0.2 0.2 -0.1
v 0 0.2 -0.2
v 0.1 0.2 -0.2
v 0.2 0.2 -0.2
v 0.3 0.2 -0.2
v 0.1 0.4 -0.1
v 0.2 0.4 -0.1
v 0 0.4 -0.2
v 0.1 0.4 -0.2
v 0.2 0.4 -0.2
v 0.3 0.4 -0.2
v 0 0.4 -0.3
v 0.3 0.4 -0.3

# faces
f 3/2/1 2/2/1 1/2/1
f 4/2/1 2/2/1 3/2/1
f 5/2/1 2/2/1 4/2/1
f 6/4/1 5/4/1 4/4/1
f 7/4/1 5/4/1 6/4/1
f 10/3/1 9/3/1 8/3/1
f 11/3/1 9/3/1 10/3/1
f 12/3/2 13/3/2 14/3/2
f 14/3/2 13/3/2 15/3/2
f 16/2/2 17/2/2 18/2/2
f 18/2/2 17/2/2 19/2/2
f 19/2/2 17/2/2 20/2/2
f 19/4/2 20/4/2 21/4/2
f 21/4/2 20/4/2 22/4/2
f 25/2/3 24/2/3 23/2/3
f 26/2/3 24/2/3 25/2/3
f 27/1/3 26/1/3 25/1/3
f 28/1/3 26/1/3 27/1/3
f 29/2/3 28/2/3 27/2/3
f 30/2/3 28/2/3 29/2/3
f 33/3/3 32/3/3 31/3/3
f 34/3/3 32/3/3 33/3/3
f 37/4/3 36/4/3 35/4/3
f 38/4/3 36/4/3 37/4/3
f 41/4/3 40/4/3 39/4/3
f 42/4/3 40/4/3 41/4/3
f 43/2/4 44/2/4 46/2/4
f 44/4/4 45/4/4 47/4/4
f 46/2/4 44/2/4 47/2/4
f 47/4/4 45/4/4 48/4/4
f 53/2/5 50/2/5 49/2/5
f 53/1/5 51/1/5 50/1/5
f 54/2/5 52/2/5 51/2/5
f 54/1/5 51/1/5 53/1/5
f 55/2/5 53/2/5 49/2/5
f 55/2/5 54/2/5 53/2/5
f 56/2/5 52/2/5 54/2/5
f 56/2/5 54/2/5 55/2/5
f 57/2/6 58/2/6 61/2/6
f 58/1/6 59/1/6 61/1/6
f 59/2/6 60/2/6 62/2/6
f 61/1/6 59/1/6 62/1/6
f 57/2/6 61/2/6 63/2/6
f 63/2/6 61/2/6 64/2/6
f 62/2/6 60/2/6 65/2/6
f 65/2/6 60/2/6 66/2/6
f 67/3/6 68/3/6 70/3/6
f 70/3/6 68/3/6 71/3/6
f 69/4/6 70/4/6 73/4/6
f 71/4/6 72/4/6 73/4/6
f 70/4/6 71/4/6 73/4/6
f 73/4/6 72/4/6 74/4/6
