# MagicaVoxel @ Ephtracy

# group
o 

# material
mtllib 6.mtl
usemtl palette

# normals
vn -1 0 0
vn 1 0 0
vn 0 0 1
vn 0 0 -1
vn 0 -1 0
vn 0 1 0

# texcoords
vt 0.0917969 0.5
vt 0.326172 0.5
vt 0.767578 0.5
vt 0.841797 0.5

# verts
v 0 0.4 0
v 0 0.4 -0.8
v 0 0.6 0
v 0 0.6 -0.8
v 0.3 0.8 -0.4
v 0.3 0.8 -0.5
v 0.3 0.9 -0.4
v 0.3 0.9 -0.5
v 0.4 0.6 -0.4
v 0.4 0.6 -0.5
v 0.4 0.8 -0.3
v 0.4 0.8 -0.4
v 0.4 0.8 -0.5
v 0.4 0.8 -0.6
v 0.4 0.9 -0.3
v 0.4 0.9 -0.4
v 0.4 0.9 -0.5
v 0.4 0.9 -0.6
v 0.5 0.6 -0.4
v 0.5 0.6 -0.5
v 0.5 0.8 -0.3
v 0.5 0.8 -0.4
v 0.5 0.8 -0.5
v 0.5 0.8 -0.6
v 0.5 0.9 -0.3
v 0.5 0.9 -0.4
v 0.5 0.9 -0.5
v 0.5 0.9 -0.6
v 0.6 0.8 -0.4
v 0.6 0.8 -0.5
v 0.6 0.9 -0.4
v 0.6 0.9 -0.5
v 0.8 0.4 0
v 0.8 0.4 -0.8
v 0.8 0.6 0
v 0.8 0.6 -0.8
v 0 0.4 0
v 0 0.6 0
v 0.8 0.4 0
v 0.8 0.6 0
v 0.4 0.8 -0.3
v 0.4 0.9 -0.3
v 0.5 0.8 -0.3
v 0.5 0.9 -0.3
v 0.3 0.8 -0.4
v 0.3 0.9 -0.4
v 0.4 0.6 -0.4
v 0.4 0.8 -0.4
v 0.4 0.9 -0.4
v 0.5 0.6 -0.4
v 0.5 0.8 -0.4
v 0.5 0.9 -0.4
v 0.6 0.8 -0.4
v 0.6 0.9 -0.4
v 0.3 0.8 -0.5
v 0.3 0.9 -0.5
v 0.4 0.6 -0.5
v 0.4 0.8 -0.5
v 0.4 0.9 -0.5
v 0.5 0.6 -0.5
v 0.5 0.8 -0.5
v 0.5 0.9 -0.5
v 0.6 0.8 -0.5
v 0.6 0.9 -0.5
v 0.4 0.8 -0.6
v 0.4 0.9 -0.6
v 0.5 0.8 -0.6
v 0.5 0.9 -0.6
v 0 0.4 -0.8
v 0 0.6 -0.8
v 0.8 0.4 -0.8
v 0.8 0.6 -0.8
v 0 0.4 0
v 0.8 0.4 0
v 0 0.4 -0.8
v 0.8 0.4 -0.8
v 0.4 0.8 -0.3
v 0.5 0.8 -0.3
v 0.3 0.8 -0.4
v 0.4 0.8 -0.4
v 0.5 0.8 -0.4
v 0.6 0.8 -0.4
v 0.3 0.8 -0.5
v 0.4 0.8 -0.5
v 0.5 0.8 -0.5
v 0.6 0.8 -0.5
v 0.4 0.8 -0.6
v 0.5 0.8 -0.6
v 0 0.6 0
v 0.8 0.6 0
v 0.4 0.6 -0.4
v 0.5 0.6 -0.4
v 0.4 0.6 -0.5
v 0.5 0.6 -0.5
v 0 0.6 -0.8
v 0.8 0.6 -0.8
v 0.4 0.9 -0.3
v 0.5 0.9 -0.3
v 0.3 0.9 -0.4
v 0.4 0.9 -0.4
v 0.5 0.9 -0.4
v 0.6 0.9 -0.4
v 0.3 0.9 -0.5
v 0.4 0.9 -0.5
v 0.5 0.9 -0.5
v 0.6 0.9 -0.5
v 0.4 0.9 -0.6
v 0.5 0.9 -0.6

# faces
f 3/2/1 2/2/1 1/2/1
f 4/2/1 2/2/1 3/2/1
f 7/1/1 6/1/1 5/1/1
f 8/1/1 6/1/1 7/1/1
f 12/3/1 10/3/1 9/3/1
f 13/3/1 10/3/1 12/3/1
f 15/1/1 12/1/1 11/1/1
f 16/1/1 12/1/1 15/1/1
f 17/1/1 14/1/1 13/1/1
f 18/1/1 14/1/1 17/1/1
f 19/3/2 20/3/2 22/3/2
f 22/3/2 20/3/2 23/3/2
f 21/1/2 22/1/2 25/1/2
f 25/1/2 22/1/2 26/1/2
f 23/1/2 24/1/2 27/1/2
f 27/1/2 24/1/2 28/1/2
f 29/1/2 30/1/2 31/1/2
f 31/1/2 30/1/2 32/1/2
f 33/2/2 34/2/2 35/2/2
f 35/2/2 34/2/2 36/2/2
f 39/2/3 38/2/3 37/2/3
f 40/2/3 38/2/3 39/2/3
f 43/1/3 42/1/3 41/1/3
f 44/1/3 42/1/3 43/1/3
f 48/1/3 46/1/3 45/1/3
f 49/1/3 46/1/3 48/1/3
f 50/3/3 48/3/3 47/3/3
f 51/3/3 48/3/3 50/3/3
f 53/1/3 52/1/3 51/1/3
f 54/1/3 52/1/3 53/1/3
f 55/1/4 56/1/4 58/1/4
f 58/1/4 56/1/4 59/1/4
f 57/3/4 58/3/4 60/3/4
f 60/3/4 58/3/4 61/3/4
f 61/1/4 62/1/4 63/1/4
f 63/1/4 62/1/4 64/1/4
f 65/1/4 66/1/4 67/1/4
f 67/1/4 66/1/4 68/1/4
f 69/2/4 70/2/4 71/2/4
f 71/2/4 70/2/4 72/2/4
f 75/2/5 74/2/5 73/2/5
f 76/2/5 74/2/5 75/2/5
f 80/1/5 78/1/5 77/1/5
f 81/1/5 78/1/5 80/1/5
f 83/1/5 80/1/5 79/1/5
f 84/1/5 80/1/5 83/1/5
f 85/1/5 82/1/5 81/1/5
f 86/1/5 82/1/5 85/1/5
f 87/1/5 85/1/5 84/1/5
f 88/1/5 85/1/5 87/1/5
f 89/2/6 90/2/6 91/2/6
f 91/2/6 90/2/6 92/2/6
f 89/2/6 91/2/6 93/2/6
f 92/2/6 90/2/6 94/2/6
f 89/2/6 93/2/6 95/2/6
f 93/2/6 94/2/6 95/2/6
f 94/2/6 90/2/6 96/2/6
f 95/2/6 94/2/6 96/2/6
f 97/1/6 98/1/6 100/1/6
f 100/1/6 98/1/6 101/1/6
f 99/1/6 100/1/6 103/1/6
f 100/4/6 101/4/6 104/4/6
f 103/1/6 100/1/6 104/1/6
f 101/1/6 102/1/6 105/1/6
f 104/4/6 101/4/6 105/4/6
f 105/1/6 102/1/6 106/1/6
f 104/1/6 105/1/6 107/1/6
f 107/1/6 105/1/6 108/1/6
