# MagicaVoxel @ Ephtracy

# group
o 

# material
mtllib 9.mtl
usemtl palette

# normals
vn -1 0 0
vn 1 0 0
vn 0 0 1
vn 0 0 -1
vn 0 -1 0
vn 0 1 0

# texcoords
vt 0.326172 0.5
vt 0.978516 0.5
vt 0.986328 0.5

# verts
v 0 0.4 0
v 0 0.4 -0.8
v 0 0.6 0
v 0 0.6 -0.8
v 0.3 0.6 0
v 0.3 0.6 -0.5
v 0.3 0.9 -0.1
v 0.3 0.9 -0.3
v 0.3 1 0
v 0.3 1 -0.1
v 0.3 1 -0.3
v 0.3 1 -0.5
v 0.7 0.9 -0.3
v 0.7 0.9 -0.5
v 0.7 1 -0.3
v 0.7 1 -0.5
v 0.5 0.6 0
v 0.5 0.6 -0.3
v 0.5 0.9 -0.1
v 0.5 0.9 -0.3
v 0.5 0.9 -0.5
v 0.5 1 0
v 0.5 1 -0.1
v 0.5 1 -0.3
v 0.5 1 -0.5
v 0.8 0.4 0
v 0.8 0.4 -0.8
v 0.8 0.5 0
v 0.8 0.5 -0.3
v 0.8 0.5 -0.5
v 0.8 0.6 0
v 0.8 0.6 -0.3
v 0.8 0.6 -0.5
v 0.8 0.6 -0.8
v 0.8 1 -0.3
v 0.8 1 -0.5
v 0 0.4 0
v 0 0.6 0
v 0.3 0.5 0
v 0.3 0.6 0
v 0.3 1 0
v 0.5 0.5 0
v 0.5 0.6 0
v 0.5 1 0
v 0.8 0.4 0
v 0.8 0.5 0
v 0.8 0.6 0
v 0.3 0.9 -0.3
v 0.3 1 -0.3
v 0.5 0.6 -0.3
v 0.5 0.9 -0.3
v 0.5 1 -0.3
v 0.7 0.9 -0.3
v 0.7 1 -0.3
v 0.8 0.6 -0.3
v 0.8 1 -0.3
v 0.3 0.9 -0.1
v 0.3 1 -0.1
v 0.5 0.9 -0.1
v 0.5 1 -0.1
v 0.3 0.6 -0.5
v 0.3 1 -0.5
v 0.5 0.9 -0.5
v 0.5 1 -0.5
v 0.7 0.9 -0.5
v 0.7 1 -0.5
v 0.8 0.6 -0.5
v 0.8 1 -0.5
v 0 0.4 -0.8
v 0 0.6 -0.8
v 0.8 0.4 -0.8
v 0.8 0.6 -0.8
v 0 0.4 0
v 0.8 0.4 0
v 0 0.4 -0.8
v 0.8 0.4 -0.8
v 0 0.6 0
v 0.3 0.6 0
v 0.5 0.6 0
v 0.8 0.6 0
v 0.5 0.6 -0.3
v 0.8 0.6 -0.3
v 0.3 0.6 -0.5
v 0.8 0.6 -0.5
v 0 0.6 -0.8
v 0.8 0.6 -0.8
v 0.3 0.9 -0.1
v 0.5 0.9 -0.1
v 0.3 0.9 -0.3
v 0.5 0.9 -0.3
v 0.7 0.9 -0.3
v 0.5 0.9 -0.5
v 0.7 0.9 -0.5
v 0.3 1 0
v 0.5 1 0
v 0.3 1 -0.1
v 0.5 1 -0.1
v 0.3 1 -0.3
v 0.5 1 -0.3
v 0.7 1 -0.3
v 0.8 1 -0.3
v 0.3 1 -0.5
v 0.5 1 -0.5
v 0.7 1 -0.5
v 0.8 1 -0.5

# faces
f 3/1/1 2/1/1 1/1/1
f 4/1/1 2/1/1 3/1/1
f 7/3/1 6/3/1 5/3/1
f 8/3/1 6/3/1 7/3/1
f 9/3/1 7/3/1 5/3/1
f 10/3/1 7/3/1 9/3/1
f 11/3/1 6/3/1 8/3/1
f 12/3/1 6/3/1 11/3/1
f 15/3/1 14/3/1 13/3/1
f 16/3/1 14/3/1 15/3/1
f 17/3/2 18/3/2 19/3/2
f 19/3/2 18/3/2 20/3/2
f 17/3/2 19/3/2 22/3/2
f 22/3/2 19/3/2 23/3/2
f 20/3/2 21/3/2 24/3/2
f 24/3/2 21/3/2 25/3/2
f 26/1/2 27/1/2 28/1/2
f 28/1/2 27/1/2 29/1/2
f 29/1/2 27/1/2 30/1/2
f 28/2/2 29/2/2 31/2/2
f 29/3/2 30/3/2 32/3/2
f 31/2/2 29/2/2 32/2/2
f 30/1/2 27/1/2 33/1/2
f 32/3/2 30/3/2 33/3/2
f 33/1/2 27/1/2 34/1/2
f 32/3/2 33/3/2 35/3/2
f 35/3/2 33/3/2 36/3/2
f 39/1/3 38/1/3 37/1/3
f 40/1/3 38/1/3 39/1/3
f 42/1/3 39/1/3 37/1/3
f 42/3/3 41/3/3 40/3/3
f 42/3/3 40/3/3 39/3/3
f 43/3/3 41/3/3 42/3/3
f 44/3/3 41/3/3 43/3/3
f 45/1/3 42/1/3 37/1/3
f 46/2/3 43/2/3 42/2/3
f 46/1/3 42/1/3 45/1/3
f 47/2/3 43/2/3 46/2/3
f 51/3/3 49/3/3 48/3/3
f 52/3/3 49/3/3 51/3/3
f 53/3/3 51/3/3 50/3/3
f 55/3/3 53/3/3 50/3/3
f 55/3/3 54/3/3 53/3/3
f 56/3/3 54/3/3 55/3/3
f 57/3/4 58/3/4 59/3/4
f 59/3/4 58/3/4 60/3/4
f 61/3/4 62/3/4 63/3/4
f 63/3/4 62/3/4 64/3/4
f 61/3/4 63/3/4 65/3/4
f 61/3/4 65/3/4 67/3/4
f 65/3/4 66/3/4 67/3/4
f 67/3/4 66/3/4 68/3/4
f 69/1/4 70/1/4 71/1/4
f 71/1/4 70/1/4 72/1/4
f 75/1/5 74/1/5 73/1/5
f 76/1/5 74/1/5 75/1/5
f 79/2/6 80/2/6 81/2/6
f 81/2/6 80/2/6 82/2/6
f 77/1/6 78/1/6 83/1/6
f 77/1/6 83/1/6 85/1/6
f 83/1/6 84/1/6 85/1/6
f 85/1/6 84/1/6 86/1/6
f 87/3/6 88/3/6 89/3/6
f 89/3/6 88/3/6 90/3/6
f 90/3/6 91/3/6 92/3/6
f 92/3/6 91/3/6 93/3/6
f 94/3/6 95/3/6 96/3/6
f 96/3/6 95/3/6 97/3/6
f 98/3/6 99/3/6 102/3/6
f 102/3/6 99/3/6 103/3/6
f 100/3/6 101/3/6 104/3/6
f 104/3/6 101/3/6 105/3/6
